<svg xmlns="http://www.w3.org/2000/svg" width="800" height="800" viewBox="0 0 800 800">
<g>
<path d="M 164.00 615.37 C158.69,614.38 158.35,614.00 161.01,612.00 L 163.50 610.12 L 163.82 580.68 C163.99,564.49 163.72,548.94 163.21,546.14 C162.09,540.01 161.33,540.41 177.00,539.03 C193.66,537.56 201.14,537.71 203.78,539.56 C205.77,540.95 206.00,541.96 205.98,549.31 L 205.96 557.50 L 204.11 553.50 C201.97,548.87 198.69,545.58 194.68,544.07 C190.63,542.53 176.04,542.67 175.55,544.25 C175.34,544.94 174.90,549.50 174.57,554.39 L 173.97 563.27 L 180.74 562.79 C184.47,562.52 188.93,561.57 190.66,560.68 C194.49,558.69 195.01,559.49 194.98,567.33 C194.96,574.36 193.69,576.24 191.64,572.27 C189.84,568.79 187.72,568.03 179.75,568.01 L 174.00 568.00 L 174.04 584.25 C174.10,604.07 174.83,608.49 178.55,611.46 C180.08,612.68 180.88,613.95 180.33,614.29 C178.94,615.15 167.03,615.94 164.00,615.37 ZM 215.25 615.32 C213.46,615.08 212.00,614.75 212.00,614.59 C212.00,614.43 212.79,612.78 213.75,610.90 C215.32,607.85 215.49,604.07 215.41,574.50 C215.36,556.35 215.14,540.21 214.91,538.63 C214.56,536.22 215.25,535.13 219.25,531.72 C221.87,529.49 224.34,528.01 224.75,528.42 C225.16,528.83 225.50,547.17 225.50,569.17 L 225.50 609.17 L 227.91 611.13 C229.35,612.29 229.95,613.44 229.41,613.98 C228.27,615.10 219.59,615.92 215.25,615.32 ZM 256.46 615.02 C240.40,612.63 231.26,597.34 236.57,581.75 C238.76,575.32 245.81,568.94 253.34,566.59 C261.06,564.17 273.71,564.72 279.50,567.74 C287.95,572.13 292.00,579.05 292.00,589.10 C292.00,597.17 290.43,602.14 286.38,606.87 C280.66,613.55 268.62,616.83 256.46,615.02 ZM 275.91 609.06 C285.08,602.54 285.52,583.34 276.71,574.17 C272.36,569.64 268.91,568.00 263.80,568.02 C247.86,568.10 239.44,585.11 247.49,600.97 C250.16,606.25 252.24,608.32 257.03,610.47 C262.18,612.78 271.68,612.08 275.91,609.06 ZM 303.25 615.28 C301.46,615.05 300.00,614.70 300.00,614.49 C300.00,614.29 301.01,612.40 302.25,610.31 C304.29,606.85 304.50,605.22 304.50,592.50 C304.50,581.13 304.17,577.86 302.75,575.10 C300.38,570.49 300.43,570.33 304.96,568.02 C309.96,565.47 312.05,565.47 312.71,568.00 C313.38,570.56 313.91,570.52 319.68,567.45 C323.04,565.67 325.67,565.00 328.49,565.20 C332.14,565.47 332.53,565.77 332.79,568.50 C332.96,570.15 332.43,572.39 331.63,573.49 C330.23,575.40 330.11,575.41 328.19,573.67 C325.06,570.84 318.27,571.73 315.60,575.32 C313.69,577.89 313.50,579.47 313.51,592.82 C313.51,604.74 313.84,608.13 315.24,610.87 C316.19,612.73 316.72,614.64 316.42,615.12 C315.89,615.99 309.58,616.06 303.25,615.28 ZM 347.01 614.95 C345.10,614.51 342.29,612.77 340.79,611.09 C335.41,605.07 335.90,599.66 342.36,593.50 C347.05,589.02 353.58,586.35 362.50,585.24 C368.41,584.51 368.50,584.45 368.82,581.13 C369.52,573.88 364.59,568.00 357.82,568.00 C354.56,568.00 353.11,568.76 349.01,572.59 C343.96,577.31 342.00,577.59 342.00,573.60 C342.00,568.77 349.61,565.11 359.78,565.04 C366.64,565.00 371.48,566.58 374.36,569.81 C375.91,571.55 376.36,574.56 377.11,588.20 C378.20,607.83 378.39,608.76 381.53,610.19 C384.81,611.69 384.65,612.36 380.68,613.80 C375.47,615.68 371.34,615.32 369.58,612.81 L 368.05 610.62 L 363.77 612.69 C358.74,615.13 351.89,616.05 347.01,614.95 ZM 362.57 608.54 C367.02,606.68 369.21,601.79 368.80,594.66 L 368.50 589.50 L 364.00 589.24 C353.17,588.62 343.48,600.26 348.99,607.27 C351.51,610.46 356.77,610.96 362.57,608.54 ZM 420.20 615.32 C419.19,614.92 419.31,614.20 420.70,612.15 C422.34,609.73 422.50,606.62 422.50,576.40 C422.50,550.74 422.21,542.96 421.20,541.74 C418.98,539.07 421.54,538.57 439.56,538.16 C462.38,537.65 466.54,538.53 473.52,545.35 C478.06,549.78 478.96,551.31 479.98,556.30 C482.84,570.34 476.17,581.70 461.93,587.02 C458.67,588.25 456.00,589.77 456.00,590.41 C456.00,593.04 471.85,606.68 480.75,611.71 C483.64,613.34 485.70,614.97 485.33,615.33 C484.30,616.37 474.93,616.11 470.67,614.93 C467.86,614.14 463.43,610.58 453.89,601.43 C442.60,590.60 440.50,589.00 437.60,589.00 C434.57,589.00 434.21,589.32 433.70,592.46 C432.75,598.33 434.60,607.79 437.43,611.50 C438.85,613.35 440.00,615.12 440.00,615.43 C440.00,616.14 421.98,616.04 420.20,615.32 ZM 460.15 581.46 C462.53,579.79 465.53,576.87 466.82,574.96 C468.89,571.90 469.13,570.56 468.83,563.41 C468.41,553.17 465.52,548.38 457.35,544.38 C452.57,542.04 451.08,541.80 444.17,542.20 C439.89,542.44 435.84,542.98 435.19,543.38 C434.34,543.91 434.00,549.62 434.00,563.59 C434.00,586.49 433.14,585.11 447.17,584.73 C455.01,584.52 456.24,584.21 460.15,581.46 ZM 493.33 615.43 C492.49,615.04 492.74,613.59 494.18,610.32 C496.00,606.20 496.16,604.19 495.77,589.63 C495.54,580.76 495.01,572.74 494.59,571.82 C494.02,570.55 494.88,569.37 498.07,567.07 C500.40,565.38 502.62,564.00 503.01,564.00 C503.40,564.00 504.03,571.76 504.40,581.25 C505.33,605.21 505.90,609.83 508.19,611.96 C510.01,613.66 510.01,613.78 508.31,614.43 C505.89,615.36 494.79,616.10 493.33,615.43 ZM 585.82 614.66 C575.65,611.80 568.82,603.60 568.18,593.48 C567.47,582.40 572.10,573.47 581.15,568.46 C586.13,565.70 587.23,565.50 597.04,565.50 C609.02,565.50 613.00,567.01 613.00,571.55 C613.00,575.37 610.83,575.43 604.99,571.80 C600.45,568.98 598.76,568.50 593.40,568.50 C587.84,568.50 586.79,568.83 584.08,571.42 C579.51,575.81 577.71,581.52 578.15,590.28 C578.45,596.29 579.04,598.46 581.26,601.82 C586.83,610.24 597.85,612.42 609.15,607.35 C615.46,604.52 617.44,604.76 614.50,608.00 C609.14,613.92 594.91,617.23 585.82,614.66 ZM 625.26 615.34 C624.33,614.97 624.45,614.07 625.73,611.67 C628.24,606.98 628.90,578.52 626.61,573.91 C624.69,570.06 625.16,569.32 631.91,565.64 L 636.86 562.95 L 637.18 585.72 C637.45,604.97 637.77,608.99 639.22,611.64 C640.90,614.72 640.89,614.79 638.72,615.38 C636.10,616.08 627.03,616.06 625.26,615.34 ZM 529.07 613.27 C524.87,611.20 519.62,606.06 517.29,601.73 C514.47,596.49 514.92,585.73 518.23,579.38 C523.37,569.53 529.82,565.85 543.00,565.25 C555.35,564.69 560.39,566.18 560.76,570.50 C560.90,572.15 560.59,574.16 560.07,574.96 C559.27,576.19 558.42,575.94 554.81,573.42 C546.73,567.78 541.92,566.75 535.70,569.35 C531.83,570.97 526.28,577.03 525.38,580.63 C524.40,584.51 525.66,596.44 527.40,599.81 C532.29,609.27 546.31,612.92 556.98,607.51 C559.68,606.14 562.15,605.43 562.45,605.93 C563.39,607.44 557.15,612.86 553.21,613.96 C547.20,615.63 533.04,615.22 529.07,613.27 ZM 497.00 551.00 C495.90,549.90 495.00,548.36 495.00,547.57 C495.00,545.39 497.87,543.00 500.50,543.00 C502.78,543.00 506.00,545.31 506.00,546.94 C506.00,548.47 501.84,553.00 500.43,553.00 C499.64,553.00 498.10,552.10 497.00,551.00 ZM 629.00 551.00 C627.90,549.90 627.00,548.36 627.00,547.57 C627.00,545.39 629.87,543.00 632.50,543.00 C634.57,543.00 638.00,545.27 638.00,546.64 C638.00,546.91 637.48,548.11 636.85,549.32 C634.65,553.49 632.05,554.05 629.00,551.00 ZM 395.69 507.00 C396.13,503.98 396.48,494.98 396.46,487.00 C396.41,469.26 395.57,466.41 385.78,450.81 C377.23,437.20 374.10,429.85 373.33,421.65 C372.35,411.11 377.53,396.32 383.61,392.33 C385.72,390.94 385.72,390.95 384.36,396.19 C382.65,402.78 382.65,408.11 384.36,414.50 C386.21,421.42 388.76,426.01 396.75,436.80 C408.37,452.49 412.99,463.49 412.97,475.50 C412.95,485.85 406.01,501.73 398.21,509.27 L 394.87 512.50 L 395.69 507.00 ZM 417.65 493.29 C417.30,491.21 417.02,483.61 417.01,476.41 C417.00,463.42 416.28,459.21 412.60,450.75 C408.34,440.94 419.74,452.71 425.19,463.74 C427.98,469.41 428.22,470.64 427.79,477.24 C427.28,485.06 424.95,490.87 420.74,494.79 L 418.28 497.09 L 417.65 493.29 ZM 386.01 492.50 C385.93,488.18 383.17,482.66 374.53,469.57 C365.23,455.49 362.36,449.40 360.29,439.28 C358.44,430.27 359.29,421.36 362.90,411.90 C364.86,406.74 373.08,395.81 371.46,400.50 C369.40,406.48 368.64,417.34 369.75,424.95 C370.72,431.61 372.10,435.21 378.45,447.68 C382.59,455.83 386.67,465.18 387.49,468.46 C389.48,476.34 389.51,490.95 387.53,493.56 C386.13,495.41 386.06,495.36 386.01,492.50 ZM 433.46 467.50 C429.91,456.97 423.47,448.73 411.93,439.95 C400.80,431.47 394.46,424.68 390.86,417.36 C388.03,411.62 387.78,410.35 388.22,404.13 C388.70,397.43 391.48,389.77 393.50,389.59 C394.05,389.54 395.02,393.48 395.66,398.34 C397.30,410.76 400.02,414.89 411.00,421.61 C430.57,433.60 438.65,446.39 436.42,461.85 C435.53,468.04 434.38,470.23 433.46,467.50 ZM 435.73 438.58 C434.75,436.52 431.64,432.39 428.82,429.40 C426.00,426.42 423.95,423.71 424.27,423.39 C425.52,422.14 431.15,424.31 433.97,427.12 C437.02,430.18 438.41,434.61 437.83,439.51 L 437.50 442.33 L 435.73 438.58 ZM 349.98 436.50 C347.74,431.98 347.50,430.29 347.50,419.00 C347.50,407.41 347.69,406.13 350.14,401.50 C353.72,394.73 360.17,386.19 369.41,376.00 C380.47,363.79 388.86,352.48 392.40,345.00 C395.19,339.10 395.48,337.58 395.49,328.50 C395.50,319.21 395.19,317.61 391.04,305.83 C386.97,294.28 386.70,292.93 387.96,290.58 C388.72,289.16 389.10,287.77 388.81,287.48 C388.52,287.19 384.96,286.26 380.89,285.42 C373.10,283.81 366.74,281.18 366.59,279.50 C366.54,278.95 369.60,278.19 373.38,277.82 C381.10,277.06 384.91,275.00 378.60,275.00 C373.17,275.00 368.10,272.28 366.23,268.36 C365.36,266.52 364.95,264.72 365.33,264.34 C365.71,263.96 367.97,264.63 370.37,265.83 C373.03,267.16 376.42,267.96 379.11,267.90 L 383.50 267.80 L 380.09 266.71 C375.31,265.18 369.42,259.24 368.17,254.68 C366.33,247.98 367.62,247.52 373.71,252.72 L 379.21 257.42 L 394.06 258.16 C407.41,258.83 409.63,259.21 416.20,261.95 C425.20,265.71 432.86,271.38 435.48,276.22 C437.73,280.40 437.19,281.71 433.92,279.96 C430.83,278.30 421.28,279.41 418.06,281.79 C411.42,286.72 412.30,290.85 422.53,302.79 C426.15,307.02 430.55,313.40 432.30,316.97 C435.22,322.89 435.50,324.29 435.50,332.98 C435.50,341.26 435.14,343.26 432.77,348.34 C431.26,351.55 428.58,356.01 426.80,358.25 C421.98,364.34 409.65,373.01 395.82,380.02 C371.27,392.48 364.06,398.01 359.18,408.12 C356.63,413.39 354.10,424.38 353.90,431.00 C353.82,433.48 353.47,436.85 353.11,438.50 L 352.45 441.50 L 349.98 436.50 ZM 410.84 356.51 C419.45,347.31 422.39,341.29 422.45,332.77 C422.50,326.50 422.28,325.83 419.28,322.82 C415.40,318.94 414.45,319.44 416.49,324.31 C420.37,333.60 417.16,345.06 407.27,357.20 C399.70,366.51 401.89,366.08 410.84,356.51 ZM 413.50 269.50 C413.50,267.96 412.73,267.43 410.12,267.18 C405.70,266.75 403.76,268.59 406.50,270.61 C409.33,272.70 413.50,272.04 413.50,269.50 ZM 336.82 428.29 C333.82,424.86 332.68,421.49 332.64,416.01 C332.58,408.46 335.32,401.06 340.22,395.49 C343.76,391.47 350.83,386.00 352.49,386.00 C352.78,386.00 351.24,389.54 349.07,393.87 C343.82,404.31 341.33,412.01 340.47,420.50 C339.58,429.29 338.92,430.70 336.82,428.29 ZM 420.00 416.96 C412.70,416.00 410.12,414.85 406.30,410.85 C398.20,402.37 397.96,389.88 405.74,381.75 C409.25,378.09 409.97,379.42 409.98,389.59 C410.00,396.08 410.45,398.54 412.29,402.02 C415.31,407.72 422.58,412.74 429.07,413.60 C434.06,414.27 435.46,415.47 432.25,416.34 C427.99,417.50 425.14,417.64 420.00,416.96 ZM 331.64 376.13 C330.12,375.53 330.56,375.07 334.14,373.52 C336.54,372.49 342.29,369.14 346.93,366.08 C354.25,361.25 356.02,360.51 360.43,360.43 C363.22,360.38 366.96,360.00 368.75,359.59 C372.78,358.66 372.83,359.55 369.04,364.78 C365.30,369.95 358.33,374.06 350.55,375.69 C343.96,377.07 334.59,377.29 331.64,376.13 ZM 447.16 375.41 C439.34,373.70 431.12,369.35 429.66,366.16 C428.73,364.12 428.92,363.48 430.90,361.88 C433.50,359.78 439.00,359.41 442.32,361.13 C443.52,361.75 447.42,364.18 451.00,366.53 C454.58,368.88 459.64,371.84 462.25,373.10 C464.86,374.36 467.00,375.76 467.00,376.20 C467.00,377.46 454.17,376.95 447.16,375.41 ZM 308.73 369.97 C306.66,369.45 303.06,368.04 300.73,366.83 L 296.50 364.64 L 304.50 362.85 C308.90,361.86 316.64,359.86 321.69,358.41 C328.19,356.53 331.85,355.97 334.19,356.47 C336.01,356.87 339.52,357.33 342.00,357.50 C347.16,357.86 347.46,359.19 343.21,362.81 C336.95,368.14 330.99,370.28 321.50,370.61 C316.55,370.78 310.81,370.50 308.73,369.97 ZM 465.40 369.17 C460.63,367.52 453.93,363.03 451.03,359.54 C449.90,358.18 450.53,358.00 456.38,358.00 C460.13,358.00 463.00,357.57 463.00,357.00 C463.00,355.33 466.83,355.86 476.89,358.95 C482.18,360.57 489.62,362.43 493.43,363.08 L 500.37 364.27 L 496.43 366.31 C487.35,371.02 474.24,372.23 465.40,369.17 ZM 289.36 357.02 C284.53,356.00 275.95,351.86 271.15,348.26 C268.59,346.34 268.12,345.54 269.15,344.89 C270.94,343.75 312.00,343.75 312.00,344.88 C312.00,345.36 311.01,346.41 309.80,347.22 C307.74,348.58 308.08,348.72 314.99,349.36 C322.98,350.10 324.25,350.59 321.97,352.05 C314.93,356.55 298.73,359.02 289.36,357.02 ZM 484.50 356.68 C478.29,355.08 473.50,352.10 474.90,350.70 C475.45,350.15 478.73,349.42 482.20,349.08 C487.97,348.51 488.31,348.35 486.22,347.18 C484.97,346.47 484.21,345.47 484.53,344.95 C485.32,343.67 525.05,343.73 527.00,345.02 C528.65,346.10 528.70,346.05 522.09,350.35 C512.48,356.61 495.40,359.48 484.50,356.68 ZM 347.69 351.88 C346.07,350.94 346.34,350.53 350.19,348.07 C354.79,345.12 358.64,341.30 357.83,340.50 C357.56,340.22 354.67,341.08 351.42,342.41 C348.16,343.73 343.42,345.12 340.87,345.50 C335.57,346.29 325.71,344.59 322.04,342.25 C319.60,340.69 319.65,340.66 326.54,339.02 C333.65,337.33 343.67,333.34 342.86,332.52 C342.61,332.28 339.40,332.57 335.73,333.18 C325.34,334.90 312.64,331.47 304.59,324.75 L 301.67 322.33 L 316.16 321.70 C324.12,321.36 331.40,320.79 332.32,320.43 C335.57,319.18 332.80,318.00 326.62,318.00 C316.55,318.00 304.54,313.61 297.33,307.28 C294.17,304.52 289.00,297.46 289.00,295.92 C289.00,295.47 291.43,296.18 294.40,297.50 C301.84,300.79 309.32,302.74 317.00,303.39 L 323.50 303.93 L 318.50 302.11 C310.20,299.09 303.05,295.09 298.60,290.98 C293.51,286.30 288.94,277.66 288.24,271.42 L 287.72 266.86 L 291.61 268.55 C301.06,272.67 306.16,274.35 316.00,276.59 C321.77,277.91 327.75,278.99 329.29,278.99 C331.77,279.00 331.95,278.78 330.99,276.98 C329.40,274.02 319.49,266.52 311.85,262.50 C301.43,257.02 299.29,257.96 305.75,265.19 C307.81,267.49 308.83,269.00 308.00,268.53 C302.01,265.17 293.17,257.90 286.69,251.01 C278.06,241.84 271.70,230.30 270.14,221.00 L 269.22 215.50 L 272.36 219.50 C280.91,230.40 289.82,237.12 311.43,248.97 C336.62,262.79 341.80,267.87 351.33,288.17 C359.72,306.04 368.59,313.97 380.25,313.99 C384.93,314.00 386.52,315.20 383.42,316.39 C382.55,316.73 379.29,317.00 376.17,317.00 C366.29,317.00 354.53,309.67 345.73,298.03 C342.47,293.72 341.29,294.65 342.93,300.24 C344.80,306.63 349.73,313.72 354.63,317.09 C357.03,318.74 359.00,320.52 359.00,321.05 C359.00,321.57 360.24,322.00 361.75,322.01 C367.84,322.04 371.94,323.25 372.57,325.22 C373.03,326.66 373.76,327.02 375.35,326.58 C376.53,326.25 379.41,325.69 381.75,325.35 L 386.00 324.73 L 386.00 328.33 C386.00,334.36 382.18,342.82 377.06,348.13 C370.77,354.66 368.04,354.39 371.16,347.54 C372.72,344.11 371.51,343.19 368.75,345.70 C365.67,348.50 362.49,350.05 356.55,351.63 C350.54,353.23 350.03,353.25 347.69,351.88 ZM 441.23 351.96 C438.45,350.85 437.58,348.81 438.42,345.45 L 439.06 342.91 L 443.05 345.15 C445.25,346.39 447.81,348.23 448.73,349.26 C450.19,350.87 450.22,351.25 448.96,352.05 C447.15,353.19 444.21,353.16 441.23,351.96 ZM 450.16 344.09 C442.04,341.29 441.55,340.47 441.16,329.10 L 440.82 319.28 L 446.23 313.22 C451.34,307.49 454.00,301.98 454.00,297.13 C454.00,294.03 452.88,294.53 449.50,299.12 C445.23,304.91 439.35,310.00 436.91,310.00 C435.77,310.00 434.98,309.65 435.17,309.23 C435.35,308.81 439.39,300.58 444.15,290.94 C456.37,266.21 460.37,262.17 486.33,248.33 C502.82,239.53 513.16,231.91 519.69,223.75 C522.66,220.04 525.34,217.00 525.65,217.00 C526.69,217.00 524.87,224.40 522.02,231.76 C520.26,236.31 517.08,241.65 513.53,246.05 C507.86,253.07 494.80,264.91 488.88,268.41 C485.78,270.24 485.79,270.20 490.00,264.88 C494.91,258.68 493.92,257.48 486.83,261.07 C475.57,266.77 465.00,275.17 465.00,278.40 C465.00,280.66 485.08,276.52 498.30,271.54 C508.83,267.58 509.38,267.99 506.50,277.67 C503.72,287.03 494.93,294.87 480.75,300.62 C473.53,303.55 472.94,303.97 476.00,303.98 C482.75,303.99 492.28,301.89 498.75,298.96 C502.34,297.33 505.66,296.00 506.14,296.00 C510.62,296.00 496.24,310.26 487.37,314.62 C482.46,317.03 479.99,317.56 472.25,317.85 C463.47,318.18 460.99,319.01 464.65,320.42 C465.55,320.77 472.59,321.34 480.29,321.69 L 494.28 322.32 L 490.89 325.23 C482.52,332.40 473.18,334.62 459.00,332.79 L 453.50 332.08 L 459.50 335.04 C462.80,336.67 468.09,338.55 471.25,339.20 C474.41,339.86 477.00,340.68 477.00,341.02 C477.00,342.31 464.29,346.02 460.00,345.98 C457.52,345.95 453.10,345.10 450.16,344.09 ZM 276.58 338.89 C268.91,337.77 259.36,333.26 251.65,327.10 C245.85,322.47 241.41,316.92 242.58,315.75 C242.87,315.46 246.35,316.07 250.30,317.10 C254.26,318.13 264.92,320.35 274.00,322.02 C283.08,323.69 292.72,325.78 295.44,326.67 L 300.39 328.29 L 294.94 329.95 L 289.50 331.61 L 297.23 332.87 C309.91,334.95 308.16,337.37 292.81,338.98 C287.69,339.52 283.27,339.92 283.00,339.86 C282.73,339.80 279.84,339.37 276.58,338.89 ZM 501.50 339.29 C496.16,338.56 491.00,336.95 491.00,336.01 C491.00,334.97 497.25,333.05 501.00,332.94 C502.38,332.89 504.40,332.50 505.50,332.06 C507.17,331.39 506.77,331.05 503.03,330.03 C498.98,328.92 498.72,328.68 500.35,327.48 C502.17,326.15 510.63,324.14 523.50,321.97 C527.35,321.32 535.00,319.66 540.50,318.29 C546.00,316.91 551.59,315.54 552.92,315.24 L 555.35 314.70 L 553.28 317.60 C550.06,322.14 540.97,330.36 535.91,333.31 C527.28,338.36 512.94,340.86 501.50,339.29 ZM 263.35 315.05 C246.12,309.91 232.70,299.05 227.16,285.72 C224.22,278.66 223.20,274.00 224.59,274.00 C224.92,274.00 227.50,275.97 230.34,278.38 C236.44,283.56 245.66,288.33 261.72,294.61 C273.51,299.22 282.35,303.31 284.85,305.32 C285.90,306.17 285.38,306.63 282.46,307.45 L 278.72 308.50 L 285.98 311.50 C289.97,313.15 293.19,314.95 293.12,315.50 C293.05,316.09 288.20,316.58 281.25,316.69 C272.33,316.83 268.02,316.44 263.35,315.05 ZM 503.00 315.94 C503.00,315.35 506.16,313.41 510.02,311.62 C517.25,308.27 517.94,307.03 512.58,306.96 L 509.50 306.93 L 512.24 304.69 C513.74,303.45 522.29,299.57 531.24,296.05 C551.94,287.92 557.23,285.28 564.56,279.41 C567.82,276.80 571.02,274.26 571.65,273.79 C574.22,271.85 569.61,286.50 565.70,292.68 C559.52,302.47 542.50,313.72 530.57,315.91 C522.77,317.34 503.00,317.36 503.00,315.94 ZM 273.00 292.51 C259.18,289.73 246.27,283.05 235.99,273.35 C224.52,262.53 220.75,254.76 219.10,238.50 C218.60,233.55 218.28,229.40 218.40,229.28 C218.52,229.15 221.11,232.11 224.16,235.84 C231.25,244.52 242.84,254.72 255.51,263.45 C272.47,275.12 280.00,280.99 280.00,282.52 C280.00,284.34 280.08,284.34 274.47,282.44 C266.71,279.80 267.49,281.28 276.88,286.98 C281.81,289.98 285.63,292.78 285.37,293.21 C284.70,294.29 280.73,294.06 273.00,292.51 ZM 511.29 292.75 C512.27,292.06 517.15,288.88 522.14,285.68 C527.12,282.49 531.01,279.67 530.77,279.44 C530.53,279.20 527.51,280.15 524.06,281.55 C509.88,287.31 514.45,281.10 534.22,267.73 C553.54,254.67 565.17,244.55 574.56,232.64 L 577.60 228.78 L 576.84 237.51 C575.06,257.80 568.73,268.77 552.70,279.36 C539.43,288.12 529.67,291.72 514.50,293.43 C510.32,293.90 509.79,293.79 511.29,292.75 ZM 273.70 267.57 C263.13,263.22 256.65,258.62 245.45,247.50 C232.46,234.61 228.86,228.42 226.32,214.60 C224.97,207.23 224.88,204.10 225.79,195.74 C226.39,190.23 227.31,185.29 227.84,184.76 C228.47,184.13 230.41,187.11 233.32,193.14 C238.85,204.64 247.20,215.80 262.01,231.50 C275.62,245.92 289.00,261.13 289.00,262.19 C289.00,264.61 273.87,256.16 264.41,248.45 C252.35,238.63 252.21,240.17 264.04,252.67 C267.59,256.43 273.20,261.86 276.50,264.74 C283.11,270.50 282.45,271.17 273.70,267.57 ZM 516.00 269.41 C516.00,269.08 521.62,263.02 528.50,255.96 C540.27,243.87 544.98,237.48 537.75,243.41 C525.30,253.62 514.31,260.67 508.00,262.50 C505.65,263.18 505.71,263.00 509.04,259.36 C510.98,257.24 515.02,252.57 518.01,249.00 C521.00,245.43 528.37,237.23 534.39,230.78 C548.38,215.81 555.85,205.83 561.77,194.25 C564.37,189.17 566.95,185.16 567.50,185.33 C569.74,186.06 570.72,208.46 568.89,217.20 C565.54,233.20 548.81,253.06 530.00,263.34 C522.37,267.52 516.00,270.28 516.00,269.41 Z" fill="rgba(0,0,0,1)"/>
</g>
</svg>